<svg width="28" height="32" viewBox="0 0 28 32" fill="none" xmlns="http://www.w3.org/2000/svg">
<path d="M0 29.3V11.7C0 11.15 0.1125 10.65 0.3375 10.2C0.5625 9.75 0.916667 9.35 1.4 9L12.05 0.9C12.5953 0.466667 13.24 0.25 13.984 0.25C14.728 0.25 15.4 0.466667 16 0.9L26.65 9C27.1 9.35 27.4375 9.75 27.6625 10.2C27.8875 10.65 28 11.15 28 11.7V29.3C28 29.7917 27.8313 30.2063 27.4938 30.5438C27.1563 30.8813 26.7417 31.05 26.25 31.05H19.45C18.9667 31.05 18.5625 30.8875 18.2375 30.5625C17.9125 30.2375 17.75 29.8333 17.75 29.35V19.65C17.75 19.2 17.5875 18.8125 17.2625 18.4875C16.9375 18.1625 16.55 18 16.1 18H11.95C11.4667 18 11.0625 18.1625 10.7375 18.4875C10.4125 18.8125 10.25 19.2 10.25 19.65V29.35C10.25 29.8333 10.0875 30.2375 9.7625 30.5625C9.4375 30.8875 9.05 31.05 8.6 31.05H1.75C1.25833 31.05 0.84375 30.8813 0.50625 30.5438C0.16875 30.2063 0 29.7917 0 29.3Z" fill="white"/>
</svg>
