<svg width="38" height="38" viewBox="0 0 38 38" fill="none" xmlns="http://www.w3.org/2000/svg">
    <path
        d="M35.0501 37.6L21.8501 24.4C20.8168 25.2667 19.6008 25.9334 18.2021 26.4C16.8035 26.8667 15.3601 27.1 13.872 27.1C10.052 27.1 6.84335 25.8 4.24605 23.2C1.64875 20.6 0.350098 17.4334 0.350098 13.7C0.350098 9.96672 1.6501 6.80005 4.2501 4.20005C6.8501 1.60005 10.0168 0.300049 13.7501 0.300049C17.4834 0.300049 20.6501 1.60005 23.2501 4.20005C25.8501 6.80005 27.1501 9.96922 27.1501 13.7076C27.1501 15.1692 26.9251 16.575 26.4751 17.925C26.0251 19.275 25.3334 20.55 24.4001 21.75L37.7001 34.95L35.0501 37.6ZM13.7751 23.45C16.5001 23.45 18.8022 22.5035 20.6813 20.6104C22.5605 18.7174 23.5001 16.4139 23.5001 13.7C23.5001 10.9861 22.562 8.68268 20.6858 6.78965C18.8095 4.89658 16.5074 3.95005 13.7795 3.95005C11.0238 3.95005 8.70496 4.89658 6.823 6.78965C4.94106 8.68268 4.0001 10.9861 4.0001 13.7C4.0001 16.4139 4.94106 18.7174 6.823 20.6104C8.70496 22.5035 11.0223 23.45 13.7751 23.45Z"
        fill="white" />
</svg>